<svg width="300" height="55" viewBox="0 0 300 55" fill="none" xmlns="http://www.w3.org/2000/svg">
<g clip-path="url(#clip0_5_479)">
<g clip-path="url(#clip1_5_479)">
<g clip-path="url(#clip2_5_479)">
<g clip-path="url(#clip3_5_479)">
<g clip-path="url(#clip4_5_479)">
<g clip-path="url(#clip5_5_479)">
<g clip-path="url(#clip6_5_479)">
<g clip-path="url(#clip7_5_479)">
<g clip-path="url(#clip8_5_479)">
<g clip-path="url(#clip9_5_479)">
<path d="M52.2744 7.58821V47.3171H49.2258L44.6246 39.3836V15.5217L49.2258 7.58821H52.2744ZM58.5771 15.5217H53.4867V7.58821H61.6398L66.2269 15.5217V23.5166H58.5771V15.5217ZM61.6398 47.3171H53.4867V39.3836H58.5771V33.5714H66.2269V39.3836L61.6398 47.3171ZM69.5448 47.3171V38.8441H71.849V16.0367H69.5448V7.58821H81.8029V16.0367H79.4987V38.8441H81.8029V47.3171H69.5448ZM93.5859 7.58821L107.553 47.3171H99.4207L85.5037 7.58821H93.5859ZM92.1679 47.3171H85.5037V11.3649L92.1679 30.2484V47.3171ZM100.888 7.58821H107.553V43.5404L100.888 24.5711V7.58821ZM126.574 30.9964H119.25V47.3171H111.601V7.58821H119.25V23.3326H126.574V30.9964ZM125.227 15.2887H120.463V7.58821H132.423V19.09H125.227V15.2887ZM132.423 47.3171H120.463V39.3836H124.773V35.3984H132.423V47.3171ZM149.729 47.3171L136.11 7.58821H144.249L150.41 25.2578L155.252 10.8867V30.886L149.729 47.3171ZM164.029 47.3171H156.379V7.58821H164.029V47.3171ZM143.242 47.3171H136.096V11.2791L143.242 32.0141V47.3171ZM184.121 47.3171L183.157 42.9763H175.642L177.237 35.1041H181.391L175.245 7.58821H182.703L191.863 47.3171H184.121ZM177.804 25.1597L173.6 47.3171H166.205L174.415 9.39073L177.804 25.1597ZM201.654 7.58821V39.3836H208.212V47.3171H198.591L194.004 39.3836V15.5217L198.591 7.58821H201.654ZM205.702 33.1545V25.2823H216.209V47.3171H209.424V33.1545H205.702ZM208.559 15.5217H202.866V7.58821H212.196L216.209 15.5217V19.5069H208.559V15.5217ZM227.566 47.3171H219.917V7.58821H227.566V47.3171ZM234.521 15.5217H228.779V7.58821H237.52L242.122 15.5217V27.4404L238.591 33.5469L238.35 32.7131L231.168 34.3562L231.444 35.3984H228.779V27.7102H234.521V15.5217ZM238.591 33.5469L242.901 47.3171H234.727L231.444 35.3984H237.52L238.591 33.5469ZM261.675 47.3171L260.711 42.9763H253.196L254.791 35.1041H258.945L252.799 7.58821H260.257L269.417 47.3171H261.675ZM255.358 25.1597L251.154 47.3171H243.766L251.969 9.39073L255.358 25.1597ZM285.234 47.3171L271.615 7.58821H279.746L285.907 25.2578L290.757 10.8867V30.886L285.234 47.3171ZM299.534 47.3171H291.877V7.58821H299.534V47.3171ZM278.74 47.3171H271.593V11.2791L278.74 32.0141V47.3171Z" fill="#FF4136"/>
</g>
</g>
</g>
</g>
<g clip-path="url(#clip10_5_479)">
<g clip-path="url(#clip11_5_479)">
<path d="M26.62 39.0513C28.2856 38.3503 30.6508 37.4898 33.127 37.0311C33.2392 36.054 33.2999 35.0562 33.2999 34.0396C33.2999 33.6593 33.2908 33.2804 33.2746 32.9051V27.4721C32.1148 32.2106 29.7397 36.2654 26.62 39.0513Z" fill="#5E1914"/>
<path d="M16.6932 41.7308C25.8651 41.7308 33.3003 32.3889 33.3003 20.865C33.3003 9.34118 25.8651 1.52588e-05 16.6932 1.52588e-05C7.52127 1.52588e-05 0.0860596 9.3419 0.0860596 20.865C0.0856439 32.3889 7.52127 41.7308 16.6932 41.7308ZM2.84241 20.8636C2.84241 17.509 5.00684 14.79 7.67674 14.79C10.3466 14.79 12.5111 17.5098 12.5111 20.8636C12.5111 24.2182 10.3466 26.9379 7.67674 26.9379C5.00643 26.9379 2.84241 24.2182 2.84241 20.8636ZM30.544 20.8636C30.544 24.2182 28.3787 26.9379 25.7088 26.9379C23.0389 26.9379 20.8745 24.2182 20.8745 20.8636C20.8745 17.509 23.0389 14.79 25.7088 14.79C28.3787 14.79 30.544 17.5098 30.544 20.8636ZM11.858 32.1926C11.858 28.8388 14.0229 26.1183 16.6919 26.1183C19.3623 26.1183 21.5267 28.8388 21.5267 32.1926C21.5267 35.5479 19.3618 38.2662 16.6919 38.2662C14.0225 38.2662 11.858 35.5479 11.858 32.1926ZM15.4607 20.8643C15.4607 20.0095 16.0127 19.3164 16.6932 19.3164C17.3737 19.3164 17.9257 20.0095 17.9257 20.8643C17.9257 21.7191 17.3737 22.4129 16.6932 22.4129C16.0127 22.4129 15.4607 21.7199 15.4607 20.8643ZM21.5271 9.53745C21.5271 12.892 19.3622 15.6118 16.6924 15.6118C14.0229 15.6118 11.8584 12.892 11.8584 9.53745C11.8584 6.18217 14.0233 3.46314 16.6924 3.46314C19.3622 3.46242 21.5271 6.18217 21.5271 9.53745Z" fill="#5E1914"/>
<path d="M34.2942 37.7378C29.8307 38.4402 24.2162 40.9213 21.7529 42.0852C20.1508 42.7093 18.4528 43.0479 16.6928 43.0479C8.90927 43.0479 2.30499 36.4746 0.104399 27.4462V33.1086C0.0935913 33.4177 0.0856934 33.7276 0.0856934 34.0396C0.0856934 45.5642 7.52091 54.9053 16.6928 54.9053C19.7086 54.9053 22.5343 53.8902 24.9714 52.1252C34.1197 47.987 39.1847 49.8986 39.1847 49.8986V38.1289C38.0341 37.466 36.2779 37.4265 34.2942 37.7378Z" fill="#5E1914"/>
</g>
</g>
</g>
</g>
</g>
</g>
</g>
</g>
<defs>
<clipPath id="clip0_5_479">
<rect width="300" height="55" fill="white"/>
</clipPath>
<clipPath id="clip1_5_479">
<rect width="300" height="55" fill="white" transform="translate(-0.181763 -0.0473328)"/>
</clipPath>
<clipPath id="clip2_5_479">
<rect width="299.465" height="54.9053" fill="white" transform="translate(0.0856934)"/>
</clipPath>
<clipPath id="clip3_5_479">
<rect width="299.465" height="54.9053" fill="white" transform="translate(0.0856934)"/>
</clipPath>
<clipPath id="clip4_5_479">
<rect width="299.465" height="54.9053" fill="white" transform="translate(0.0856934)"/>
</clipPath>
<clipPath id="clip5_5_479">
<rect width="299.465" height="54.9053" fill="white" transform="translate(0.0856934)"/>
</clipPath>
<clipPath id="clip6_5_479">
<rect width="254.943" height="39.7289" fill="white" transform="translate(44.6074 7.58821)"/>
</clipPath>
<clipPath id="clip7_5_479">
<rect width="254.943" height="39.7289" fill="white" transform="translate(44.6074 7.58821)"/>
</clipPath>
<clipPath id="clip8_5_479">
<rect width="254.943" height="39.7289" fill="white" transform="translate(44.6074 7.58821)"/>
</clipPath>
<clipPath id="clip9_5_479">
<rect width="254.943" height="39.7289" fill="white" transform="translate(44.6074 7.58821)"/>
</clipPath>
<clipPath id="clip10_5_479">
<rect width="39.099" height="54.9053" fill="white" transform="translate(0.0856934)"/>
</clipPath>
<clipPath id="clip11_5_479">
<rect width="39.099" height="54.9053" fill="white" transform="translate(0.0856934)"/>
</clipPath>
</defs>
</svg>
